<?xml version="1.0"?>
<svg xmlns="http://www.w3.org/2000/svg" id="bold" enable-background="new 0 0 24 24" height="512px" viewBox="0 0 24 24" width="512px"><g><path d="m12.25 2h-1.1c-.33-1.15-1.39-2-2.65-2s-2.32.85-2.65 2h-1.1c-.41 0-.75.34-.75.75v1.5c0 .96.79 1.75 1.75 1.75h5.5c.96 0 1.75-.79 1.75-1.75v-1.5c0-.41-.34-.75-.75-.75z" data-original="#000000" class="active-path" data-old_color="#000000" fill="#585858"/><path d="m14.25 3h-.25v1.25c0 1.52-1.23 2.75-2.75 2.75h-5.5c-1.52 0-2.75-1.23-2.75-2.75v-1.25h-.25c-1.52 0-2.75 1.23-2.75 2.75v12.5c0 1.52 1.23 2.75 2.75 2.75h7.01c-.49-1.07-.76-2.25-.76-3.5h-5.25c-.41 0-.75-.34-.75-.75s.34-.75.75-.75h5.39c.1-.61.28-1.2.51-1.75h-5.9c-.41 0-.75-.34-.75-.75s.34-.75.75-.75h6.7c.44-.65.97-1.24 1.57-1.75h-8.27c-.41 0-.75-.34-.75-.75s.34-.75.75-.75h9.5c.25 0 .48.13.61.32.96-.46 2.02-.74 3.14-.81v-3.26c0-1.52-1.23-2.75-2.75-2.75z" data-original="#000000" class="active-path" data-old_color="#000000" fill="#585858"/><path d="m17.5 11c-3.584 0-6.5 2.916-6.5 6.5s2.916 6.5 6.5 6.5 6.5-2.916 6.5-6.5-2.916-6.5-6.5-6.5zm.53 10.53c-.14.14-.33.22-.53.22-.1 0-.19-.02-.29-.06-.09-.04-.17-.09-.24-.16s-.12-.15-.16-.24-.06-.19-.06-.29c0-.2.08-.39.22-.53.28-.28.78-.28 1.06 0 .07.07.13.15.16.24.04.09.06.19.06.29 0 .2-.08.39-.22.53zm.948-3.763c-.272.199-.728.626-.728 1.253v.23c0 .414-.336.75-.75.75s-.75-.336-.75-.75v-.23c0-.941.489-1.839 1.341-2.462.26-.191.409-.485.409-.808 0-.551-.449-1-1-1s-1 .449-1 1c0 .414-.336.75-.75.75s-.75-.336-.75-.75c0-1.378 1.122-2.5 2.5-2.5s2.5 1.122 2.5 2.5c0 .793-.382 1.547-1.022 2.017z" data-original="#000000" class="active-path" data-old_color="#000000" fill="#585858"/></g> </svg>
